<?xml version="1.0" encoding="utf-8"?>
<!-- Generator: Adobe Illustrator 18.1.1, SVG Export Plug-In . SVG Version: 6.00 Build 0)  -->
<svg version="1.1" id="svg2751" xmlns:svg="http://www.w3.org/2000/svg"
	 xmlns="http://www.w3.org/2000/svg" xmlns:xlink="http://www.w3.org/1999/xlink" x="0px" y="0px" viewBox="-192 277 226 240"
	 enable-background="new -192 277 226 240" xml:space="preserve">
<g id="g3578">
	<path id="path2764" fill="none" stroke="#03508D" d="M-165.5,481.4l144.2-180.2"/>
	<path id="path2766" fill="none" stroke="#03508D" d="M-26,452.8L-98,396.2"/>
	<path id="path2806" fill="none" stroke="#F1F0F0" d="M-141.9,436.7c5.2-10.4,8.9-21.6,10.4-33.2c3.5-24,19.4-23.3,29.4-32.5
		c9.6-14.9,25.9-22.3,32.5-23.4c8.7-1.1,15.9,9.9,14,17.9c0.2,17.4-6.8,25.7-11.7,36.6c-3.1,4.5-7.5,8.3-12.7,11.4
		c-6.9,2.7-9.2,15.8-14.5,18.2c-10.3,7.5-6.7-2.6-19.5,12.7c-2.9,5.7-13.6,8.8-19.5,1.8C-137.7,443.4-142.9,440.4-141.9,436.7z"/>
	<path id="path2762" fill="none" stroke="#F1F0F0" d="M-165.5,310.5v170.9H12.4"/>
</g>
<g id="g3584">
	<text transform="matrix(1 0 0 1 -187.9383 308.4286)" fill="#F1F0F0" font-family="'JosefinSans'" font-size="18">Variable 2</text>
	<text transform="matrix(1 0 0 1 -49.1429 295.4415)" fill="#03508D" font-family="'JosefinSans'" font-size="18">Faktor 1</text>
	<text transform="matrix(1 0 0 1 -37.4545 439.5974)" fill="#03508D" font-family="'JosefinSans'" font-size="18">Faktor 2</text>
	<text transform="matrix(1 0 0 1 -52.2597 498.5585)" fill="#F1F0F0" font-family="'JosefinSans'" font-size="18">Variable 1</text>
</g>
</svg>
